# xmcd
#
# Track frame offsets:
#	150
#	11617
#	23434
#	37952
#
# Disc length: 694 seconds
#
# Revision: 0
# Processed by: cddbd v1.5.2PL0 Copyright (c) Steve Scherf et al.
# Submitted via: audiograbber 1.83.01
#
DISCID=1d02b404
DTITLE=Repent - Promo 2009
DYEAR=2009
DGENRE=Thrash
TTITLE0=Vortex of Violence 
TTITLE1=Vengeance 
TTITLE2=Rat Race 
TTITLE3=Howl
EXTD=
EXTT0=
EXTT1=
EXTT2=
EXTT3=
PLAYORDER=
